<?xml version="1.0" encoding="UTF-8"?><svg viewBox="0 0 384 378.08"><defs></defs><g id="c"><path class="d" d="m192,0C85.97,0,0,85.97,0,192c0,89.97,61.95,165.25,145.47,186.08-.9-2.59-1.47-5.6-1.47-9.33v-32.82h-24.13c-13.14,0-24.82-5.65-30.48-16.14-6.29-11.66-7.38-29.5-22.96-40.42-4.62-3.63-1.1-7.78,4.22-7.22,9.84,2.78,18,9.54,25.68,19.55,7.65,10.03,11.25,12.3,25.54,12.3,6.93,0,17.3-.4,27.06-1.94,5.25-13.33,14.32-25.6,25.41-31.39-63.94-6.58-94.45-38.38-94.45-81.57,0-18.59,7.92-36.58,21.38-51.73-4.42-15.04-9.97-45.71,1.7-57.39,28.77,0,46.16,18.66,50.34,23.7,14.34-4.91,30.08-7.7,46.62-7.7s32.38,2.78,46.75,7.73c4.13-5.01,21.54-23.73,50.37-23.73,11.71,11.7,6.1,42.5,1.63,57.5,13.38,15.12,21.25,33.06,21.25,51.62,0,43.15-30.46,74.94-94.3,81.55,17.57,9.17,30.38,34.93,30.38,54.34v43.74c0,1.66-.37,2.86-.56,4.29,74.82-26.22,128.56-97.26,128.56-181.04C384,85.97,298.03,0,192,0Z"/></g></svg>