<?xml version="1.0" encoding="utf-8"?>
<!-- Generator: Adobe Illustrator 27.6.1, SVG Export Plug-In . SVG Version: 6.00 Build 0)  -->
<svg version="1.1" id="Layer_1" xmlns="http://www.w3.org/2000/svg" xmlns:xlink="http://www.w3.org/1999/xlink" x="0px" y="0px"
	 viewBox="0 0 480 480" style="enable-background:new 0 0 480 480;" xml:space="preserve">
<style type="text/css">
	.st0{fill:#3C67F6;}
</style>
<path class="st0" d="M240,48C134,48,48,134,48,240c0,90,62,165.2,145.5,186.1c-0.9-2.6-1.5-5.6-1.5-9.3v-32.8c-7.8,0-20.8,0-24.1,0
	c-13.1,0-24.8-5.6-30.5-16.1c-6.3-11.7-7.4-29.5-23-40.4c-4.6-3.6-1.1-7.8,4.2-7.2c9.8,2.8,18,9.5,25.7,19.6
	c7.6,10,11.2,12.3,25.5,12.3c6.9,0,17.3-0.4,27.1-1.9c5.2-13.3,14.3-25.6,25.4-31.4c-63.9-6.6-94.4-38.4-94.4-81.6
	c0-18.6,7.9-36.6,21.4-51.7c-4.4-15-10-45.7,1.7-57.4c28.8,0,46.2,18.7,50.3,23.7c14.3-4.9,30.1-7.7,46.6-7.7
	c16.6,0,32.4,2.8,46.8,7.7c4.1-5,21.5-23.7,50.4-23.7c11.7,11.7,6.1,42.5,1.6,57.5c13.4,15.1,21.2,33.1,21.2,51.6
	c0,43.2-30.5,74.9-94.3,81.6c17.6,9.2,30.4,34.9,30.4,54.3v43.7c0,1.7-0.4,2.9-0.6,4.3C378.3,394.8,432,323.8,432,240
	C432,134,346,48,240,48z"/>
</svg>
