<?xml version="1.0" encoding="UTF-8"?><svg  viewBox="0 0 79.17 79.17"><defs></defs><g id="c"><path class="d" d="m23.96,0C10.75,0,0,10.75,0,23.96v31.25c0,13.21,10.75,23.96,23.96,23.96h31.25c13.21,0,23.96-10.75,23.96-23.96v-31.25c0-13.21-10.75-23.96-23.96-23.96h-31.25Zm36.46,14.58c2.3,0,4.17,1.86,4.17,4.17s-1.86,4.17-4.17,4.17-4.17-1.87-4.17-4.17,1.86-4.17,4.17-4.17Zm-20.83,4.17c11.49,0,20.83,9.35,20.83,20.83s-9.35,20.83-20.83,20.83-20.83-9.35-20.83-20.83,9.35-20.83,20.83-20.83Zm0,6.25c-8.05,0-14.58,6.53-14.58,14.58s6.53,14.58,14.58,14.58,14.58-6.53,14.58-14.58-6.53-14.58-14.58-14.58Z"/></g></svg>