<?xml version="1.0" encoding="utf-8"?>
<!-- Generator: Adobe Illustrator 27.6.1, SVG Export Plug-In . SVG Version: 6.00 Build 0)  -->
<svg version="1.1" id="Layer_1" xmlns="http://www.w3.org/2000/svg" xmlns:xlink="http://www.w3.org/1999/xlink" x="0px" y="0px"
	 viewBox="0 0 100 100" style="enable-background:new 0 0 100 100;" xml:space="preserve">
<style type="text/css">
	.st0{fill:#3C67F6;}
</style>
<path class="st0" d="M34.4,10.4c-13.2,0-24,10.7-24,24v31.2c0,13.2,10.7,24,24,24h31.2c13.2,0,24-10.7,24-24V34.4
	c0-13.2-10.7-24-24-24H34.4z M70.8,25c2.3,0,4.2,1.9,4.2,4.2c0,2.3-1.9,4.2-4.2,4.2c-2.3,0-4.2-1.9-4.2-4.2
	C66.7,26.9,68.5,25,70.8,25z M50,29.2c11.5,0,20.8,9.3,20.8,20.8S61.5,70.8,50,70.8S29.2,61.5,29.2,50S38.5,29.2,50,29.2z M50,35.4
	c-8.1,0-14.6,6.5-14.6,14.6S41.9,64.6,50,64.6S64.6,58.1,64.6,50S58.1,35.4,50,35.4z"/>
</svg>
